<?xml version="1.0" encoding="UTF-8"?>
<svg width="70px" height="70px" viewBox="0 0 70 70" version="1.1" xmlns="http://www.w3.org/2000/svg" xmlns:xlink="http://www.w3.org/1999/xlink">
    <!-- Generator: Sketch 51.3 (57544) - http://www.bohemiancoding.com/sketch -->
    <title>Group 2@2x</title>
    <desc>Created with Sketch.</desc>
    <defs></defs>
    <g id="Scan-Card-Ingenico" stroke="none" stroke-width="1" fill="none" fill-rule="evenodd">
        <g id="02.Scan-ready" transform="translate(-154.000000, -712.000000)" fill="#FFFFFF">
            <g id="Take-photo-v.1" transform="translate(0.000000, 692.000000)">
                <g id="Group-2" transform="translate(154.000000, 20.000000)">
                    <path d="M35,0 C15.701875,0 0,15.701875 0,35 C0,54.298125 15.701875,70 35,70 C54.298125,70 70,54.298125 70,35 C70,15.701875 54.298125,0 35,0 L35,0 Z M55.4166667,43.75 C55.4166667,45.3570833 54.1085417,46.6666667 52.5,46.6666667 L17.5,46.6666667 C15.8914583,46.6666667 14.5833333,45.3570833 14.5833333,43.75 L14.5833333,29.1666667 C14.5833333,27.5595833 15.8914583,26.25 17.5,26.25 L24.7916667,26.25 C25.178125,26.25 25.5485417,26.096875 25.8227083,25.8227083 L31.22875,20.4166667 L38.77125,20.4166667 L44.1772917,25.8227083 C44.45,26.096875 44.821875,26.25 45.2083333,26.25 L52.5,26.25 C54.1085417,26.25 55.4166667,27.5595833 55.4166667,29.1666667 L55.4166667,43.75 L55.4166667,43.75 Z" id="Fill-1"></path>
                    <path d="M35,26.25 C30.174375,26.25 26.25,30.174375 26.25,35 C26.25,39.825625 30.174375,43.75 35,43.75 C39.825625,43.75 43.75,39.825625 43.75,35 C43.75,30.174375 39.825625,26.25 35,26.25 L35,26.25 Z M35,40.8333333 C31.7829167,40.8333333 29.1666667,38.2170833 29.1666667,35 C29.1666667,31.7829167 31.7829167,29.1666667 35,29.1666667 C38.2170833,29.1666667 40.8333333,31.7829167 40.8333333,35 C40.8333333,38.2170833 38.2170833,40.8333333 35,40.8333333 L35,40.8333333 Z" id="Fill-2"></path>
                    <path d="M51.0416667,27.7083333 C50.2352083,27.7083333 49.5833333,28.3602083 49.5833333,29.1666667 C49.5833333,29.973125 50.2352083,30.625 51.0416667,30.625 C51.8466667,30.625 52.5,29.973125 52.5,29.1666667 C52.5,28.3602083 51.8466667,27.7083333 51.0416667,27.7083333" id="Fill-3"></path>
                </g>
            </g>
        </g>
    </g>
</svg>